<svg version="1.1" id="Layer_1" xmlns="http://www.w3.org/2000/svg" xmlns:xlink="http://www.w3.org/1999/xlink" x="0px" y="0px"
	 width="100%" viewBox="0 0 288 288" enable-background="new 0 0 288 288" xml:space="preserve">
<path fill="#61B3D4" opacity="1.000000" stroke="none" 
	d="
M138.000000,289.000000 
	C92.000000,289.000000 46.500000,289.000000 1.000000,289.000000 
	C1.000000,193.000000 1.000000,97.000000 1.000000,1.000000 
	C97.000000,1.000000 193.000000,1.000000 289.000000,1.000000 
	C289.000000,97.000000 289.000000,193.000000 289.000000,289.000000 
	C238.833328,289.000000 188.666672,289.000000 138.000000,289.000000 
M71.685722,218.768738 
	C75.727234,221.029999 79.602425,223.682526 83.839577,225.483505 
	C100.518936,232.572998 117.643997,232.347107 134.552231,226.817093 
	C148.577103,222.230118 158.889267,212.830475 165.154938,199.305161 
	C166.843628,195.659851 167.027679,192.131561 163.095139,189.652924 
	C159.280258,187.248428 156.547043,189.212204 153.987793,192.006271 
	C151.629135,194.581375 149.217407,197.115891 146.710052,199.545441 
	C134.204330,211.662872 112.535995,215.162399 96.977684,207.438446 
	C81.655594,199.831741 74.883232,186.488068 72.738800,170.266113 
	C71.892990,163.867828 72.446587,163.372498 78.879539,163.367798 
	C103.529190,163.349777 128.178864,163.360001 152.828522,163.359741 
	C168.181000,163.359589 169.731384,161.572723 167.684036,146.237656 
	C163.661362,116.106956 146.771729,97.636604 118.119026,93.984726 
	C92.970482,90.779449 72.153252,99.521271 57.814617,120.870033 
	C47.564606,136.131256 45.039791,153.534195 46.773380,171.583389 
	C48.581051,190.403839 55.741173,206.533340 71.685722,218.768738 
M210.991409,128.388123 
	C214.259186,128.899948 215.805801,126.952415 217.012817,124.326302 
	C219.373489,119.190140 221.871857,114.117348 224.241837,108.985344 
	C230.785202,94.816200 237.399475,80.678047 243.750290,66.422745 
	C245.777802,61.871658 244.293915,59.732727 239.307968,59.682167 
	C225.487518,59.542030 211.664734,59.637794 197.842896,59.624264 
	C191.586746,59.618141 193.758606,64.387703 193.376663,67.604965 
	C192.968262,71.045212 194.376068,72.912094 198.161072,72.826416 
	C204.651413,72.679489 211.147537,72.714500 217.639999,72.785461 
	C219.355103,72.804199 221.065704,73.233971 223.243744,73.540497 
	C222.394028,75.720825 221.904373,77.282761 221.198792,78.740181 
	C214.615448,92.338707 208.102066,105.972816 201.344681,119.484734 
	C197.370758,127.430893 197.808853,128.389923 206.633087,128.390335 
	C207.798798,128.390396 208.964508,128.388855 210.991409,128.388123 
z"/>
<path fill="#F8FCFD" opacity="1.000000" stroke="none" 
	d="
M71.407379,218.547226 
	C55.741173,206.533340 48.581051,190.403839 46.773380,171.583389 
	C45.039791,153.534195 47.564606,136.131256 57.814617,120.870033 
	C72.153252,99.521271 92.970482,90.779449 118.119026,93.984726 
	C146.771729,97.636604 163.661362,116.106956 167.684036,146.237656 
	C169.731384,161.572723 168.181000,163.359589 152.828522,163.359741 
	C128.178864,163.360001 103.529190,163.349777 78.879539,163.367798 
	C72.446587,163.372498 71.892990,163.867828 72.738800,170.266113 
	C74.883232,186.488068 81.655594,199.831741 96.977684,207.438446 
	C112.535995,215.162399 134.204330,211.662872 146.710052,199.545441 
	C149.217407,197.115891 151.629135,194.581375 153.987793,192.006271 
	C156.547043,189.212204 159.280258,187.248428 163.095139,189.652924 
	C167.027679,192.131561 166.843628,195.659851 165.154938,199.305161 
	C158.889267,212.830475 148.577103,222.230118 134.552231,226.817093 
	C117.643997,232.347107 100.518936,232.572998 83.839577,225.483505 
	C79.602425,223.682526 75.727234,221.029999 71.407379,218.547226 
M96.992470,147.618073 
	C100.953964,147.611984 104.915565,147.583954 108.876923,147.604126 
	C118.972534,147.655548 129.067978,147.757721 139.163605,147.770920 
	C141.499344,147.773972 144.221802,147.838593 143.877747,144.289703 
	C142.196869,126.950577 131.296692,113.395592 113.444542,111.192299 
	C93.032326,108.673042 77.172569,123.159637 72.947578,142.945847 
	C72.215973,146.372040 73.524330,147.919617 77.106659,147.817245 
	C83.566063,147.632706 90.030624,147.629013 96.992470,147.618073 
z"/>
<path fill="#F3F9FC" opacity="1.000000" stroke="none" 
	d="
M210.560822,128.388092 
	C208.964508,128.388855 207.798798,128.390396 206.633087,128.390335 
	C197.808853,128.389923 197.370758,127.430893 201.344681,119.484734 
	C208.102066,105.972816 214.615448,92.338707 221.198792,78.740181 
	C221.904373,77.282761 222.394028,75.720825 223.243744,73.540497 
	C221.065704,73.233971 219.355103,72.804199 217.639999,72.785461 
	C211.147537,72.714500 204.651413,72.679489 198.161072,72.826416 
	C194.376068,72.912094 192.968262,71.045212 193.376663,67.604965 
	C193.758606,64.387703 191.586746,59.618141 197.842896,59.624264 
	C211.664734,59.637794 225.487518,59.542030 239.307968,59.682167 
	C244.293915,59.732727 245.777802,61.871658 243.750290,66.422745 
	C237.399475,80.678047 230.785202,94.816200 224.241837,108.985344 
	C221.871857,114.117348 219.373489,119.190140 217.012817,124.326302 
	C215.805801,126.952415 214.259186,128.899948 210.560822,128.388092 
z"/>
<path fill="#64B5D5" opacity="1.000000" stroke="none" 
	d="
M96.742752,147.583923 
	C90.030624,147.629013 83.566063,147.632706 77.106659,147.817245 
	C73.524330,147.919617 72.215973,146.372040 72.947578,142.945847 
	C77.172569,123.159637 93.032326,108.673042 113.444542,111.192299 
	C131.296692,113.395592 142.196869,126.950577 143.877747,144.289703 
	C144.221802,147.838593 141.499344,147.773972 139.163605,147.770920 
	C129.067978,147.757721 118.972534,147.655548 108.876923,147.604126 
	C104.915565,147.583954 100.953964,147.611984 96.742752,147.583923 
z"/>
</svg>